<?xml version="1.0" standalone="no"?>
<!DOCTYPE svg PUBLIC "-//W3C//DTD SVG 20010904//EN"
 "http://www.w3.org/TR/2001/REC-SVG-20010904/DTD/svg10.dtd">
<svg version="1.0" xmlns="http://www.w3.org/2000/svg"
 width="908.000000pt" height="908.000000pt" viewBox="0 0 908.000000 908.000000"
 preserveAspectRatio="xMidYMid meet">
<metadata>
Created by potrace 1.14, written by Peter Selinger 2001-2017
</metadata>
<g transform="translate(0.000000,908.000000) scale(0.100000,-0.100000)"
fill="#000000" stroke="none">
<path d="M6434 7503 l-62 -25 -12 -75 c-31 -196 -119 -344 -265 -449 -69 -49
-178 -102 -268 -130 l-58 -18 -30 37 c-63 77 -120 84 -300 36 -170 -45 -200
-68 -223 -171 l-11 -52 -220 -60 c-121 -32 -222 -60 -224 -62 -5 -4 16 -145
23 -152 3 -3 55 8 114 24 l109 30 -5 -97 c-4 -88 -2 -102 21 -153 35 -76 70
-119 126 -155 61 -39 160 -65 217 -56 24 3 44 4 44 1 0 -4 14 -67 30 -142 17
-75 29 -138 28 -139 -2 -2 -64 -15 -138 -30 -74 -14 -219 -45 -322 -67 l-188
-41 8 -56 c15 -113 7 -677 -11 -856 -10 -93 -20 -177 -23 -184 -3 -9 -26 26
-53 80 -106 209 -260 429 -481 687 -67 78 -128 142 -135 142 -23 0 -334 -110
-428 -151 -326 -143 -637 -382 -860 -659 -144 -178 -363 -539 -341 -560 11
-10 476 -212 479 -208 1 2 16 29 34 61 127 224 338 422 589 550 91 47 252 117
267 117 16 0 -3 -351 -31 -560 -95 -725 -377 -1393 -870 -2060 l-92 -125 -166
-34 -166 -34 0 -84 0 -83 529 0 528 0 27 97 27 96 129 134 c453 469 788 992
967 1511 l36 105 14 -44 c27 -89 62 -288 74 -414 26 -293 -13 -610 -147 -1189
-35 -153 -64 -283 -64 -287 0 -5 249 -9 555 -9 l555 0 0 69 c0 58 -3 71 -17
75 -10 2 -76 17 -148 32 -71 14 -132 28 -133 30 -2 1 12 69 31 151 180 750
220 1388 127 2018 -42 286 -115 582 -224 908 -40 120 -58 187 -51 187 18 0
689 220 696 228 3 4 -34 196 -82 427 -49 231 -89 427 -89 436 0 9 21 25 49 39
27 12 68 41 90 64 119 122 130 314 25 451 -37 50 -40 47 60 64 85 16 202 13
271 -4 82 -22 156 -68 226 -143 l60 -63 64 21 c36 12 65 25 65 28 2 23 -277
972 -285 971 -5 -1 -38 -12 -71 -26z m-595 -928 c16 -8 40 -28 55 -45 48 -57
31 -161 -32 -206 -31 -22 -489 -154 -532 -154 -99 0 -171 121 -125 210 17 33
66 74 75 63 4 -4 15 -36 25 -70 10 -35 21 -63 24 -63 3 0 116 28 249 62 l244
63 -6 55 c-4 30 -9 64 -12 77 -7 27 -3 28 35 8z"/>
<path d="M3923 6972 c-271 -141 -493 -261 -493 -265 0 -8 443 -712 459 -730 6
-6 67 71 103 129 4 6 -19 76 -51 156 l-58 145 111 36 112 37 38 118 39 119
154 48 c85 27 156 51 158 55 9 14 -62 410 -73 409 -4 0 -229 -116 -499 -257z"/>
<path d="M4571 5873 l-164 -115 -199 8 -198 7 66 -139 c36 -77 71 -149 77
-161 5 -13 14 -23 19 -23 4 0 68 47 142 105 l133 105 163 0 162 0 -6 48 c-3
26 -11 99 -17 162 -6 63 -12 116 -12 116 -1 1 -76 -50 -166 -113z"/>
<path d="M2381 3796 c-10 -22 -37 -97 -60 -165 -47 -134 -48 -166 -10 -228 27
-44 65 -64 199 -109 168 -55 242 -47 296 34 21 31 138 312 132 317 -2 1 -124
45 -271 97 l-269 96 -17 -42z"/>
</g>
</svg>
