<?xml version="1.0" encoding="UTF-8"?>
<svg style="position: absolute; width: 0; height: 0; overflow: hidden;" version="1.1" xmlns="http://www.w3.org/2000/svg">
    <defs>
        <!--
            == SOCIAL NETWORKS
        -->
        <symbol id="linked-in" viewBox="0 0 24 24">
            <title>LinkedIn</title>
            <path d="M18.0168 18.3373H15.4846V14.1604C15.4846 13.1644 15.4677 11.8822 14.1676 11.8822C12.8488 11.8822 12.647 12.9674 12.647 14.0879V18.3369H10.1149V9.74766H12.5457V10.9215H12.5798C13.0747 10.0301 13.9984 9.49573 14.9782 9.53406C17.5446 9.53406 18.0178 11.3121 18.0178 13.6253L18.0168 18.3373ZM7.25776 8.57354C7.25761 8.57354 7.25753 8.57354 7.25746 8.57354C6.45134 8.57354 5.788 7.87493 5.788 7.02584C5.788 6.17675 6.45134 5.47806 7.25746 5.47806C8.0635 5.47806 8.72675 6.17659 8.72691 7.02552C8.72691 7.0256 8.72691 7.02568 8.72691 7.02584C8.72691 7.87477 8.06373 8.57346 7.25776 8.57354ZM8.52381 18.3373H5.98904V9.74766H8.52381V18.3373ZM19.2791 3.00124H4.71657C4.03298 2.99311 3.4639 3.5786 3.45557 4.29863V19.7011C3.46359 20.4215 4.0326 21.0076 4.71657 20.9999H19.2791C19.9647 21.009 20.5357 20.4229 20.5449 19.7011V4.29758C20.5357 3.57602 19.964 2.99061 19.2791 3.00011V3.00124Z" fill="#0A66C2"/>
        </symbol>
        <symbol id="twitter" viewBox="0 0 24 24">
            <title>Twitter</title>
            <path d="M20.8081 7.48105C20.8216 7.67634 20.8216 7.87163 20.8216 8.06872C20.8216 14.074 16.2499 21 7.89029 21V20.9964C5.42084 21 3.0027 20.2926 0.923828 18.9589C1.28291 19.0021 1.64378 19.0237 2.00556 19.0246C4.05203 19.0264 6.04001 18.3398 7.65 17.0753C5.70523 17.0384 3.99983 15.7704 3.40407 13.9192C4.08533 14.0506 4.78728 14.0236 5.45594 13.841C3.33568 13.4126 1.81027 11.5497 1.81027 9.38623C1.81027 9.36643 1.81027 9.34754 1.81027 9.32864C2.44203 9.68051 3.14939 9.8758 3.87294 9.8974C1.87597 8.56279 1.26041 5.90615 2.46633 3.82908C4.77378 6.6684 8.17827 8.3945 11.8329 8.57718C11.4667 6.99868 11.967 5.34459 13.1478 4.23496C14.9782 2.51427 17.8572 2.60246 19.5779 4.43205C20.5957 4.23136 21.5712 3.85788 22.464 3.32872C22.1247 4.38075 21.4146 5.27439 20.4661 5.84226C21.3669 5.73606 22.2471 5.49488 23.0759 5.1268C22.4658 6.04114 21.6972 6.83759 20.8081 7.48105Z" fill="#1D9BF0"/>
        </symbol>
        <symbol id="facebook" viewBox="0 0 24 24">
            <title>Facebook</title>
            <path d="M20.9999 20.0082C20.9999 20.553 20.56 21 20.0082 21H15.419V14.0291H17.7589L18.1082 11.312H15.419V9.57974C15.419 8.79045 15.6357 8.25959 16.7671 8.25959H18.206V5.82188C17.9546 5.78696 17.1025 5.71711 16.1105 5.71711C14.0361 5.71711 12.6181 6.98137 12.6181 9.30732V11.312H10.2712V14.0291H12.6181V21H3.9918C3.44706 21 3 20.5599 3 20.0082V3.99185C3 3.44702 3.44706 3 3.9918 3H20.0082C20.553 3 20.9999 3.44005 20.9999 3.99185V20.0082Z" fill="#157DC3"/>
        </symbol>
        <symbol id="arobase" viewBox="0 0 19 20">
            <path d="M9.54688 19.6235C8.04134 19.6235 6.68229 19.3916 5.46973 18.9277C4.25716 18.4639 3.25618 17.821 2.4668 16.999C1.67741 16.1771 1.07113 15.2127 0.647949 14.106C0.23291 12.991 0.0253906 11.7826 0.0253906 10.4805C0.0253906 8.65755 0.407878 6.98926 1.17285 5.47559C1.94596 3.95378 3.0568 2.73714 4.50537 1.82568C5.97021 0.906087 7.72803 0.446289 9.77881 0.446289C11.6912 0.446289 13.3392 0.861328 14.7227 1.69141C16.1061 2.51335 17.1559 3.64046 17.8721 5.07275C18.5557 6.48063 18.8975 7.97396 18.8975 9.55273C18.8975 11.2861 18.5109 12.7347 17.7378 13.8984C16.9728 15.0622 15.9515 15.644 14.6738 15.644C13.5264 15.644 12.7248 15.2127 12.269 14.3501C11.8866 14.7326 11.4634 15.0093 10.9995 15.1802C10.5438 15.3429 9.97005 15.4243 9.27832 15.4243H7.65479C6.65381 15.4243 5.87663 15.168 5.32324 14.6553C4.77799 14.1344 4.50537 13.4224 4.50537 12.519C4.50537 11.3797 4.88786 10.4601 5.65283 9.76025C6.42594 9.05225 7.45133 8.69824 8.729 8.69824H8.80225C10.1043 8.69824 11.1297 9.11735 11.8784 9.95557V8.1001C11.8784 6.84684 10.9954 6.22021 9.22949 6.22021C7.59375 6.22021 6.77588 6.78988 6.77588 7.9292C6.77588 8.12451 6.78402 8.25472 6.80029 8.31982H4.79834C4.78206 8.25472 4.77393 8.10824 4.77393 7.88037C4.77393 6.69222 5.1971 5.77262 6.04346 5.12158C6.88981 4.47054 8.04134 4.14502 9.49805 4.14502C10.9548 4.14502 12.0737 4.49089 12.855 5.18262C13.6362 5.86621 14.0269 6.8387 14.0269 8.1001V12.397C14.0269 13.3166 14.3442 13.7764 14.979 13.7764C15.6056 13.7764 16.1021 13.3939 16.4683 12.6289C16.8426 11.8639 17.0298 10.8874 17.0298 9.69922C17.0298 8.25879 16.7531 6.98112 16.1997 5.86621C15.6545 4.7513 14.8285 3.86833 13.7217 3.21729C12.6149 2.55811 11.3006 2.22852 9.77881 2.22852C8.1512 2.22852 6.73519 2.59473 5.53076 3.32715C4.33447 4.05957 3.43115 5.06868 2.8208 6.35449C2.21045 7.59961 1.90527 8.9668 1.90527 10.4561C1.90527 12.7021 2.59294 14.4966 3.96826 15.8394C5.34359 17.1821 7.19499 17.8535 9.52246 17.8535C10.5316 17.8535 11.4064 17.7274 12.147 17.4751L12.5986 19.1719C11.7279 19.473 10.7106 19.6235 9.54688 19.6235ZM6.65381 12.4946C6.65381 13.1945 7.04443 13.5444 7.82568 13.5444H10.5479C11.4349 13.5444 11.8784 13.223 11.8784 12.5801C11.8784 12.0186 11.618 11.5506 11.0972 11.1763C10.5763 10.7938 9.91715 10.6025 9.11963 10.6025H9.0708C8.33024 10.6025 7.74023 10.7775 7.30078 11.1274C6.86947 11.4692 6.65381 11.925 6.65381 12.4946Z"/>
        </symbol>

    </defs>
</svg>